<svg width="170" height="50" viewBox="0 0 170 50" fill="none" xmlns="http://www.w3.org/2000/svg">
<rect width="170" height="50" rx="8" fill="#0F1410"/>
<path d="M53.696 19H52.2983L55.4389 10.2727H56.9602L60.1009 19H58.7031L56.2358 11.858H56.1676L53.696 19ZM53.9304 15.5824H58.4645V16.6903H53.9304V15.5824ZM66.038 12.4545L63.6644 19H62.3008L59.9229 12.4545H61.2908L62.9485 17.4915H63.0167L64.6701 12.4545H66.038ZM68.9528 19.1449C68.538 19.1449 68.163 19.0682 67.8278 18.9148C67.4925 18.7585 67.2269 18.5327 67.0309 18.2372C66.8377 17.9418 66.7411 17.5795 66.7411 17.1506C66.7411 16.7812 66.8121 16.4773 66.9542 16.2386C67.0962 16 67.288 15.8111 67.5295 15.6719C67.771 15.5327 68.0408 15.4276 68.3391 15.3565C68.6374 15.2855 68.9414 15.2315 69.2511 15.1946C69.6431 15.1491 69.9613 15.1122 70.2056 15.0838C70.4499 15.0526 70.6275 15.0028 70.7383 14.9347C70.8491 14.8665 70.9045 14.7557 70.9045 14.6023V14.5724C70.9045 14.2003 70.7994 13.9119 70.5891 13.7074C70.3817 13.5028 70.0721 13.4006 69.6602 13.4006C69.2312 13.4006 68.8931 13.4957 68.646 13.6861C68.4016 13.8736 68.2326 14.0824 68.1388 14.3125L66.9414 14.0398C67.0835 13.642 67.2908 13.321 67.5636 13.0767C67.8391 12.8295 68.1559 12.6506 68.5138 12.5398C68.8718 12.4261 69.2482 12.3693 69.6431 12.3693C69.9045 12.3693 70.1815 12.4006 70.4741 12.4631C70.7695 12.5227 71.0451 12.6335 71.3008 12.7955C71.5593 12.9574 71.771 13.1889 71.9357 13.4901C72.1005 13.7884 72.1829 14.1761 72.1829 14.6534V19H70.9386V18.1051H70.8874C70.805 18.2699 70.6815 18.4318 70.5167 18.5909C70.3519 18.75 70.1403 18.8821 69.8817 18.9872C69.6232 19.0923 69.3136 19.1449 68.9528 19.1449ZM69.2298 18.1222C69.582 18.1222 69.8832 18.0526 70.1332 17.9134C70.386 17.7741 70.5778 17.5923 70.7085 17.3679C70.842 17.1406 70.9087 16.8977 70.9087 16.6392V15.7955C70.8633 15.8409 70.7752 15.8835 70.6445 15.9233C70.5167 15.9602 70.3704 15.9929 70.2056 16.0213C70.0408 16.0469 69.8803 16.071 69.7241 16.0938C69.5678 16.1136 69.4371 16.1307 69.332 16.1449C69.0849 16.1761 68.859 16.2287 68.6545 16.3026C68.4528 16.3764 68.2908 16.483 68.1687 16.6222C68.0494 16.7585 67.9897 16.9403 67.9897 17.1676C67.9897 17.483 68.1062 17.7216 68.3391 17.8835C68.5721 18.0426 68.869 18.1222 69.2298 18.1222ZM73.88 19V12.4545H75.1541V19H73.88ZM74.5234 11.4446C74.3018 11.4446 74.1115 11.3707 73.9524 11.223C73.7962 11.0724 73.718 10.8935 73.718 10.6861C73.718 10.4759 73.7962 10.2969 73.9524 10.1491C74.1115 9.99858 74.3018 9.9233 74.5234 9.9233C74.745 9.9233 74.9339 9.99858 75.0902 10.1491C75.2493 10.2969 75.3288 10.4759 75.3288 10.6861C75.3288 10.8935 75.2493 11.0724 75.0902 11.223C74.9339 11.3707 74.745 11.4446 74.5234 11.4446ZM78.1424 10.2727V19H76.8683V10.2727H78.1424ZM81.7614 19.1449C81.3466 19.1449 80.9716 19.0682 80.6364 18.9148C80.3011 18.7585 80.0355 18.5327 79.8395 18.2372C79.6463 17.9418 79.5497 17.5795 79.5497 17.1506C79.5497 16.7812 79.6207 16.4773 79.7628 16.2386C79.9048 16 80.0966 15.8111 80.3381 15.6719C80.5795 15.5327 80.8494 15.4276 81.1477 15.3565C81.446 15.2855 81.75 15.2315 82.0597 15.1946C82.4517 15.1491 82.7699 15.1122 83.0142 15.0838C83.2585 15.0526 83.4361 15.0028 83.5469 14.9347C83.6577 14.8665 83.7131 14.7557 83.7131 14.6023V14.5724C83.7131 14.2003 83.608 13.9119 83.3977 13.7074C83.1903 13.5028 82.8807 13.4006 82.4688 13.4006C82.0398 13.4006 81.7017 13.4957 81.4545 13.6861C81.2102 13.8736 81.0412 14.0824 80.9474 14.3125L79.75 14.0398C79.892 13.642 80.0994 13.321 80.3722 13.0767C80.6477 12.8295 80.9645 12.6506 81.3224 12.5398C81.6804 12.4261 82.0568 12.3693 82.4517 12.3693C82.7131 12.3693 82.9901 12.4006 83.2827 12.4631C83.5781 12.5227 83.8537 12.6335 84.1094 12.7955C84.3679 12.9574 84.5795 13.1889 84.7443 13.4901C84.9091 13.7884 84.9915 14.1761 84.9915 14.6534V19H83.7472V18.1051H83.696C83.6136 18.2699 83.4901 18.4318 83.3253 18.5909C83.1605 18.75 82.9489 18.8821 82.6903 18.9872C82.4318 19.0923 82.1222 19.1449 81.7614 19.1449ZM82.0384 18.1222C82.3906 18.1222 82.6918 18.0526 82.9418 17.9134C83.1946 17.7741 83.3864 17.5923 83.517 17.3679C83.6506 17.1406 83.7173 16.8977 83.7173 16.6392V15.7955C83.6719 15.8409 83.5838 15.8835 83.4531 15.9233C83.3253 15.9602 83.179 15.9929 83.0142 16.0213C82.8494 16.0469 82.6889 16.071 82.5327 16.0938C82.3764 16.1136 82.2457 16.1307 82.1406 16.1449C81.8935 16.1761 81.6676 16.2287 81.4631 16.3026C81.2614 16.3764 81.0994 16.483 80.9773 16.6222C80.858 16.7585 80.7983 16.9403 80.7983 17.1676C80.7983 17.483 80.9148 17.7216 81.1477 17.8835C81.3807 18.0426 81.6776 18.1222 82.0384 18.1222ZM86.7908 19V10.2727H88.065V13.5156H88.1417C88.2156 13.3793 88.3221 13.2216 88.4613 13.0426C88.6005 12.8636 88.7937 12.7074 89.0408 12.5739C89.288 12.4375 89.6147 12.3693 90.021 12.3693C90.5494 12.3693 91.021 12.5028 91.4357 12.7699C91.8505 13.0369 92.1758 13.4219 92.4116 13.9247C92.6502 14.4276 92.7695 15.0327 92.7695 15.7401C92.7695 16.4474 92.6516 17.054 92.4158 17.5597C92.18 18.0625 91.8562 18.4503 91.4442 18.723C91.0323 18.9929 90.5621 19.1278 90.0337 19.1278C89.636 19.1278 89.3107 19.0611 89.0579 18.9276C88.8079 18.794 88.6119 18.6378 88.4698 18.4588C88.3278 18.2798 88.2184 18.1207 88.1417 17.9815H88.0352V19H86.7908ZM88.0394 15.7273C88.0394 16.1875 88.1062 16.5909 88.2397 16.9375C88.3732 17.2841 88.5664 17.5554 88.8192 17.7514C89.0721 17.9446 89.3817 18.0412 89.7482 18.0412C90.1289 18.0412 90.4471 17.9403 90.7028 17.7386C90.9585 17.5341 91.1516 17.2571 91.2823 16.9077C91.4158 16.5582 91.4826 16.1648 91.4826 15.7273C91.4826 15.2955 91.4173 14.9077 91.2866 14.5639C91.1587 14.2202 90.9656 13.9489 90.707 13.75C90.4513 13.5511 90.1317 13.4517 89.7482 13.4517C89.3789 13.4517 89.0664 13.5469 88.8107 13.7372C88.5579 13.9276 88.3661 14.1932 88.2354 14.5341C88.1048 14.875 88.0394 15.2727 88.0394 15.7273ZM95.4744 10.2727V19H94.2003V10.2727H95.4744ZM100.01 19.1321C99.3647 19.1321 98.8093 18.9943 98.3434 18.7188C97.8803 18.4403 97.5224 18.0497 97.2695 17.5469C97.0195 17.0412 96.8945 16.4489 96.8945 15.7699C96.8945 15.0994 97.0195 14.5085 97.2695 13.9972C97.5224 13.4858 97.8746 13.0866 98.3263 12.7997C98.7809 12.5128 99.3121 12.3693 99.9201 12.3693C100.289 12.3693 100.647 12.4304 100.994 12.5526C101.341 12.6747 101.652 12.8665 101.927 13.1278C102.203 13.3892 102.42 13.7287 102.579 14.1463C102.738 14.5611 102.818 15.0653 102.818 15.6591V16.1108H97.6147V15.1562H101.569C101.569 14.821 101.501 14.5241 101.365 14.2656C101.228 14.0043 101.037 13.7983 100.789 13.6477C100.545 13.4972 100.258 13.4219 99.9286 13.4219C99.5707 13.4219 99.2582 13.5099 98.9911 13.6861C98.7269 13.8594 98.5224 14.0866 98.3775 14.3679C98.2354 14.6463 98.1644 14.9489 98.1644 15.2756V16.0213C98.1644 16.4588 98.2411 16.831 98.3945 17.1378C98.5508 17.4446 98.7681 17.679 99.0465 17.8409C99.3249 18 99.6502 18.0795 100.022 18.0795C100.264 18.0795 100.484 18.0455 100.683 17.9773C100.882 17.9062 101.054 17.8011 101.199 17.6619C101.343 17.5227 101.454 17.3509 101.531 17.1463L102.737 17.3636C102.64 17.7187 102.467 18.0298 102.217 18.2969C101.97 18.5611 101.659 18.767 101.284 18.9148C100.912 19.0597 100.487 19.1321 100.01 19.1321ZM115.091 14.6364C115.091 15.5682 114.92 16.3693 114.579 17.0398C114.238 17.7074 113.771 18.2216 113.177 18.5824C112.586 18.9403 111.914 19.1193 111.162 19.1193C110.406 19.1193 109.731 18.9403 109.137 18.5824C108.547 18.2216 108.081 17.706 107.74 17.0355C107.399 16.3651 107.228 15.5653 107.228 14.6364C107.228 13.7045 107.399 12.9048 107.74 12.2372C108.081 11.5668 108.547 11.0526 109.137 10.6946C109.731 10.3338 110.406 10.1534 111.162 10.1534C111.914 10.1534 112.586 10.3338 113.177 10.6946C113.771 11.0526 114.238 11.5668 114.579 12.2372C114.92 12.9048 115.091 13.7045 115.091 14.6364ZM113.787 14.6364C113.787 13.9261 113.672 13.3281 113.441 12.8423C113.214 12.3537 112.902 11.9844 112.504 11.7344C112.109 11.4815 111.662 11.3551 111.162 11.3551C110.659 11.3551 110.21 11.4815 109.815 11.7344C109.42 11.9844 109.108 12.3537 108.877 12.8423C108.65 13.3281 108.537 13.9261 108.537 14.6364C108.537 15.3466 108.65 15.946 108.877 16.4347C109.108 16.9205 109.42 17.2898 109.815 17.5426C110.21 17.7926 110.659 17.9176 111.162 17.9176C111.662 17.9176 112.109 17.7926 112.504 17.5426C112.902 17.2898 113.214 16.9205 113.441 16.4347C113.672 15.946 113.787 15.3466 113.787 14.6364ZM117.904 15.1136V19H116.63V12.4545H117.853V13.5199H117.934C118.085 13.1733 118.32 12.8949 118.641 12.6847C118.965 12.4744 119.373 12.3693 119.864 12.3693C120.31 12.3693 120.701 12.4631 121.036 12.6506C121.371 12.8352 121.631 13.1108 121.816 13.4773C122.001 13.8437 122.093 14.2969 122.093 14.8366V19H120.819V14.9901C120.819 14.5156 120.695 14.1449 120.448 13.8778C120.201 13.608 119.862 13.473 119.43 13.473C119.134 13.473 118.871 13.5369 118.641 13.6648C118.414 13.7926 118.234 13.9801 118.1 14.2273C117.969 14.4716 117.904 14.767 117.904 15.1136Z" fill="white"/>
<path d="M54.9723 40H52.4411L57.0497 26.9091H59.9773L64.5923 40H62.0611L58.5646 29.5938H58.4624L54.9723 40ZM55.0554 34.8672H61.9588V36.772H55.0554V34.8672ZM66.2143 43.6818V30.1818H68.4899V31.8054H68.6241C68.7434 31.5668 68.9118 31.3132 69.1291 31.0447C69.3464 30.772 69.6404 30.5398 70.0112 30.348C70.3819 30.152 70.8549 30.054 71.4302 30.054C72.1887 30.054 72.8727 30.2479 73.4821 30.6357C74.0957 31.0192 74.5815 31.5881 74.9395 32.3423C75.3017 33.0923 75.4828 34.0128 75.4828 35.1037C75.4828 36.1818 75.3059 37.098 74.9522 37.8523C74.5985 38.6065 74.117 39.1818 73.5076 39.5781C72.8983 39.9744 72.2079 40.1726 71.4366 40.1726C70.8741 40.1726 70.4075 40.0788 70.0368 39.8913C69.666 39.7038 69.3677 39.478 69.1419 39.2138C68.9203 38.9453 68.7477 38.6918 68.6241 38.4531H68.5282V43.6818H66.2143ZM68.4835 35.0909C68.4835 35.7259 68.573 36.282 68.752 36.7592C68.9352 37.2365 69.1973 37.6094 69.5382 37.8778C69.8833 38.142 70.301 38.2741 70.791 38.2741C71.3024 38.2741 71.7306 38.1378 72.0758 37.8651C72.421 37.5881 72.6809 37.2109 72.8556 36.7337C73.0346 36.2521 73.1241 35.7045 73.1241 35.0909C73.1241 34.4815 73.0368 33.9403 72.862 33.4673C72.6873 32.9943 72.4274 32.6236 72.0822 32.3551C71.737 32.0866 71.3066 31.9524 70.791 31.9524C70.2967 31.9524 69.877 32.0824 69.5318 32.3423C69.1866 32.6023 68.9245 32.9666 68.7456 33.4354C68.5708 33.9041 68.4835 34.456 68.4835 35.0909ZM77.4643 43.6818V30.1818H79.7399V31.8054H79.8741C79.9934 31.5668 80.1618 31.3132 80.3791 31.0447C80.5964 30.772 80.8904 30.5398 81.2612 30.348C81.6319 30.152 82.1049 30.054 82.6802 30.054C83.4387 30.054 84.1227 30.2479 84.7321 30.6357C85.3457 31.0192 85.8315 31.5881 86.1895 32.3423C86.5517 33.0923 86.7328 34.0128 86.7328 35.1037C86.7328 36.1818 86.5559 37.098 86.2022 37.8523C85.8485 38.6065 85.367 39.1818 84.7576 39.5781C84.1483 39.9744 83.4579 40.1726 82.6866 40.1726C82.1241 40.1726 81.6575 40.0788 81.2868 39.8913C80.916 39.7038 80.6177 39.478 80.3919 39.2138C80.1703 38.9453 79.9977 38.6918 79.8741 38.4531H79.7782V43.6818H77.4643ZM79.7335 35.0909C79.7335 35.7259 79.823 36.282 80.002 36.7592C80.1852 37.2365 80.4473 37.6094 80.7882 37.8778C81.1333 38.142 81.551 38.2741 82.041 38.2741C82.5524 38.2741 82.9806 38.1378 83.3258 37.8651C83.671 37.5881 83.9309 37.2109 84.1056 36.7337C84.2846 36.2521 84.3741 35.7045 84.3741 35.0909C84.3741 34.4815 84.2868 33.9403 84.112 33.4673C83.9373 32.9943 83.6774 32.6236 83.3322 32.3551C82.987 32.0866 82.5566 31.9524 82.041 31.9524C81.5467 31.9524 81.127 32.0824 80.7818 32.3423C80.4366 32.6023 80.1745 32.9666 79.9956 33.4354C79.8208 33.9041 79.7335 34.456 79.7335 35.0909ZM100.396 30.5078C100.336 29.9496 100.085 29.5149 99.6415 29.2038C99.2026 28.8928 98.6316 28.7372 97.9284 28.7372C97.4341 28.7372 97.0101 28.8118 96.6564 28.9609C96.3027 29.1101 96.0321 29.3125 95.8446 29.5682C95.6571 29.8239 95.5613 30.1158 95.557 30.4439C95.557 30.7166 95.6188 30.9531 95.7424 31.1534C95.8702 31.3537 96.0428 31.5241 96.2601 31.6648C96.4775 31.8011 96.7182 31.9162 96.9824 32.0099C97.2466 32.1037 97.513 32.1825 97.7814 32.2464L99.0087 32.5533C99.503 32.6683 99.9782 32.8239 100.434 33.0199C100.894 33.2159 101.306 33.4631 101.668 33.7614C102.034 34.0597 102.324 34.4197 102.537 34.8416C102.75 35.2635 102.857 35.7578 102.857 36.3246C102.857 37.0916 102.661 37.767 102.269 38.3509C101.877 38.9304 101.31 39.3842 100.568 39.7124C99.8311 40.0362 98.9384 40.1982 97.8901 40.1982C96.8716 40.1982 95.9874 40.0405 95.2374 39.7251C94.4917 39.4098 93.9078 38.9496 93.486 38.3445C93.0684 37.7393 92.8425 37.0021 92.8084 36.1328H95.1415C95.1756 36.5888 95.3162 36.968 95.5634 37.2706C95.8105 37.5732 96.1323 37.799 96.5286 37.9482C96.9292 38.0973 97.3766 38.1719 97.8709 38.1719C98.3865 38.1719 98.8382 38.0952 99.226 37.9418C99.6181 37.7841 99.9249 37.5668 100.146 37.2898C100.368 37.0085 100.481 36.6804 100.485 36.3054C100.481 35.9645 100.381 35.6832 100.185 35.4616C99.9888 35.2358 99.714 35.0483 99.3603 34.8991C99.0108 34.7457 98.6017 34.6094 98.133 34.4901L96.6436 34.1065C95.5655 33.8295 94.7132 33.4098 94.0868 32.8473C93.4647 32.2805 93.1536 31.5284 93.1536 30.5909C93.1536 29.8196 93.3624 29.1442 93.78 28.5646C94.2019 27.9851 94.775 27.5355 95.4995 27.2159C96.2239 26.892 97.0442 26.7301 97.9604 26.7301C98.8894 26.7301 99.7033 26.892 100.402 27.2159C101.105 27.5355 101.657 27.9808 102.058 28.5518C102.458 29.1186 102.665 29.7706 102.678 30.5078H100.396ZM109.771 30.1818V31.9716H104.127V30.1818H109.771ZM105.521 27.8295H107.835V37.0469C107.835 37.358 107.881 37.5966 107.975 37.7628C108.073 37.9247 108.201 38.0355 108.359 38.0952C108.516 38.1548 108.691 38.1847 108.883 38.1847C109.028 38.1847 109.16 38.174 109.279 38.1527C109.403 38.1314 109.496 38.1122 109.56 38.0952L109.95 39.9041C109.827 39.9467 109.65 39.9936 109.42 40.0447C109.194 40.0959 108.917 40.1257 108.589 40.1342C108.009 40.1513 107.487 40.0639 107.023 39.8722C106.558 39.6761 106.19 39.3736 105.917 38.9645C105.648 38.5554 105.516 38.044 105.521 37.4304V27.8295ZM115.884 40.1918C114.925 40.1918 114.094 39.9808 113.391 39.5589C112.688 39.1371 112.142 38.5469 111.754 37.7884C111.371 37.0298 111.179 36.1435 111.179 35.1293C111.179 34.1151 111.371 33.2266 111.754 32.4638C112.142 31.701 112.688 31.1087 113.391 30.6868C114.094 30.2649 114.925 30.054 115.884 30.054C116.843 30.054 117.673 30.2649 118.377 30.6868C119.08 31.1087 119.623 31.701 120.007 32.4638C120.394 33.2266 120.588 34.1151 120.588 35.1293C120.588 36.1435 120.394 37.0298 120.007 37.7884C119.623 38.5469 119.08 39.1371 118.377 39.5589C117.673 39.9808 116.843 40.1918 115.884 40.1918ZM115.896 38.3381C116.416 38.3381 116.851 38.1953 117.2 37.9098C117.55 37.62 117.81 37.2322 117.98 36.7464C118.155 36.2607 118.242 35.7195 118.242 35.1229C118.242 34.522 118.155 33.9787 117.98 33.4929C117.81 33.0028 117.55 32.6129 117.2 32.3232C116.851 32.0334 116.416 31.8885 115.896 31.8885C115.364 31.8885 114.921 32.0334 114.567 32.3232C114.218 32.6129 113.955 33.0028 113.781 33.4929C113.61 33.9787 113.525 34.522 113.525 35.1229C113.525 35.7195 113.61 36.2607 113.781 36.7464C113.955 37.2322 114.218 37.62 114.567 37.9098C114.921 38.1953 115.364 38.3381 115.896 38.3381ZM122.552 40V30.1818H124.796V31.8182H124.898C125.077 31.2514 125.384 30.8146 125.819 30.5078C126.257 30.1967 126.758 30.0412 127.321 30.0412C127.449 30.0412 127.591 30.0476 127.749 30.0604C127.911 30.0689 128.045 30.0838 128.152 30.1051V32.2337C128.054 32.1996 127.898 32.1697 127.685 32.1442C127.476 32.1143 127.274 32.0994 127.078 32.0994C126.656 32.0994 126.277 32.1911 125.94 32.3743C125.608 32.5533 125.346 32.8026 125.154 33.1222C124.962 33.4418 124.866 33.8104 124.866 34.228V40H122.552ZM133.631 40.1918C132.647 40.1918 131.797 39.9872 131.081 39.5781C130.369 39.1648 129.822 38.581 129.438 37.8267C129.055 37.0682 128.863 36.1754 128.863 35.1484C128.863 34.1385 129.055 33.2521 129.438 32.4893C129.826 31.7223 130.367 31.1257 131.062 30.6996C131.756 30.2692 132.572 30.054 133.51 30.054C134.115 30.054 134.686 30.152 135.223 30.348C135.764 30.5398 136.241 30.8381 136.655 31.2429C137.072 31.6477 137.4 32.1634 137.639 32.7898C137.878 33.4119 137.997 34.1534 137.997 35.0142V35.7237H129.949V34.1641H135.779C135.775 33.7209 135.679 33.3267 135.491 32.9815C135.304 32.6321 135.042 32.3572 134.705 32.157C134.373 31.9567 133.985 31.8565 133.542 31.8565C133.069 31.8565 132.653 31.9716 132.295 32.2017C131.937 32.4276 131.658 32.7259 131.458 33.0966C131.262 33.4631 131.162 33.8658 131.157 34.3047V35.6662C131.157 36.2372 131.262 36.7273 131.471 37.1364C131.68 37.5412 131.971 37.8523 132.346 38.0696C132.721 38.2827 133.16 38.3892 133.663 38.3892C134 38.3892 134.305 38.3423 134.577 38.2486C134.85 38.1506 135.086 38.0078 135.287 37.8203C135.487 37.6328 135.638 37.4006 135.741 37.1236L137.901 37.3665C137.765 37.9375 137.505 38.4361 137.121 38.8622C136.742 39.2841 136.256 39.6122 135.664 39.8466C135.072 40.0767 134.394 40.1918 133.631 40.1918Z" fill="white"/>
<path d="M30.5486 25.4755C30.562 24.4322 30.84 23.4092 31.3564 22.5018C31.8729 21.5943 32.6112 20.8319 33.5025 20.2854C32.9363 19.479 32.1893 18.8153 31.3208 18.3471C30.4523 17.8789 29.4864 17.6191 28.4996 17.5883C26.3946 17.368 24.354 18.8444 23.2813 18.8444C22.188 18.8444 20.5365 17.6102 18.7581 17.6467C17.6077 17.6838 16.4867 18.0173 15.5041 18.6149C14.5215 19.2125 13.7109 20.0537 13.1512 21.0565C10.7269 25.2421 12.5352 31.3934 14.8575 34.7766C16.0194 36.4333 17.3773 38.2839 19.1541 38.2183C20.8927 38.1463 21.5421 37.1127 23.6409 37.1127C25.7201 37.1127 26.3294 38.2183 28.1422 38.1765C30.0079 38.1463 31.1834 36.5125 32.3045 34.8401C33.1393 33.6597 33.7817 32.355 34.2079 30.9745C33.1239 30.5173 32.199 29.7521 31.5482 28.7742C30.8975 27.7963 30.5498 26.6491 30.5486 25.4755Z" fill="white"/>
<path d="M27.1243 15.3633C28.1415 14.1455 28.6427 12.5803 28.5213 11C26.9672 11.1628 25.5316 11.9035 24.5006 13.0745C23.9965 13.6466 23.6104 14.3121 23.3644 15.0331C23.1185 15.7541 23.0174 16.5163 23.067 17.2762C23.8443 17.2842 24.6133 17.1162 25.3161 16.7849C26.0189 16.4535 26.6372 15.9674 27.1243 15.3633Z" fill="white"/>
<rect x="0.5" y="0.5" width="169" height="49" rx="7.5" stroke="white" stroke-opacity="0.1"/>
</svg>
