<svg width="121" height="36" viewBox="0 0 121 36" fill="none" xmlns="http://www.w3.org/2000/svg">
<path fill-rule="evenodd" clip-rule="evenodd" d="M18.7337 2.87615C17.5666 1.70761 15.675 1.708 14.5085 2.87702L4.77309 12.6334L4.7648 12.6309L4.73403 12.6342C4.7467 12.6403 4.75914 12.6464 4.77133 12.6525C3.06353 12.8317 2.33894 13.3458 2.33073 14.006C2.33362 14.2516 2.43421 14.5168 2.61897 14.7921L2.61008 14.801C4.16265 17.1468 11.854 20.2411 17.2954 18.1446C13.2173 20.1872 3.61309 20.592 0.792194 16.6261C0.179584 17.29 -0.0767282 18.1624 0.0197952 19.0008C0.764998 23.1153 9.09641 24.2378 17.4279 18.2764L19.2308 20.0825C16.9873 22.3913 13.6735 35.8025 18.5975 33.7549C18.7143 33.6754 18.8134 33.6044 18.9483 33.5022L19.1677 33.2946C19.1551 33.2978 19.1425 33.3007 19.13 33.3037L32.3175 20.8323C33.542 19.6743 33.5697 17.7319 32.3787 16.5393L18.7337 2.87615ZM17.2976 6.94046L17.7483 5.13445L18.199 6.94046L19.5512 7.39197L18.199 7.84349L17.7483 9.64952L17.2976 7.84349L15.9454 7.39197L17.2976 6.94046ZM11.7187 12.8361L12.0192 11.6321L12.3197 12.8361L13.2212 13.1371L12.3197 13.4381L12.0192 14.6422L11.7187 13.4381L10.8173 13.1371L11.7187 12.8361ZM22.1841 22.992L21.8836 24.1959L20.9822 24.497L21.8836 24.798L22.1841 26.002L22.4845 24.798L23.386 24.497L22.4845 24.1959L22.1841 22.992Z" fill="#4845D2"/>
<path d="M40.8378 9.5686H38.0393V22.2181H45.7865V19.7395H40.8378V9.5686Z" fill="#4845D2"/>
<path d="M46.0537 17.9276C46.0537 20.6284 47.8625 22.4232 50.5928 22.4232C53.3061 22.4232 55.1148 20.6284 55.1148 17.9276C55.1148 15.2267 53.3061 13.4148 50.5928 13.4148C47.8625 13.4148 46.0537 15.2267 46.0537 17.9276ZM48.6987 17.9105C48.6987 16.6284 49.4495 15.7737 50.5928 15.7737C51.719 15.7737 52.4699 16.6284 52.4699 17.9105C52.4699 19.2096 51.719 20.0643 50.5928 20.0643C49.4495 20.0643 48.6987 19.2096 48.6987 17.9105Z" fill="#4845D2"/>
<path d="M55.5375 17.7909C55.5375 20.372 57.2098 22.1155 59.5817 22.1155C60.7251 22.1155 61.7147 21.7053 62.2096 21.0387V22.2181C62.2096 23.3976 61.4758 24.184 60.179 24.184C59.0186 24.184 58.2166 23.6369 58.1654 22.6626H55.5034C55.7422 25.0045 57.5511 26.5771 60.0254 26.5771C62.9434 26.5771 64.7863 24.6797 64.7863 21.6711V13.6712H62.4144L62.2779 14.5429C61.8001 13.8421 60.7933 13.3806 59.633 13.3806C57.244 13.3806 55.5375 15.1755 55.5375 17.7909ZM58.1995 17.7225C58.1995 16.4917 59.0187 15.6712 60.0595 15.6712C61.2711 15.6712 62.1584 16.4746 62.1584 17.7225C62.1584 18.9703 61.2882 19.825 60.0766 19.825C59.0357 19.825 58.1995 18.9703 58.1995 17.7225Z" fill="#4845D2"/>
<path d="M65.5522 17.9276C65.5522 20.6284 67.361 22.4232 70.0913 22.4232C72.8045 22.4232 74.6133 20.6284 74.6133 17.9276C74.6133 15.2267 72.8045 13.4148 70.0913 13.4148C67.361 13.4148 65.5522 15.2267 65.5522 17.9276ZM68.1972 17.9105C68.1972 16.6284 68.948 15.7737 70.0913 15.7737C71.2176 15.7737 71.9683 16.6284 71.9683 17.9105C71.9683 19.2096 71.2176 20.0643 70.0913 20.0643C68.948 20.0643 68.1972 19.2096 68.1972 17.9105Z" fill="#4845D2"/>
<path d="M76.8792 12.3379C77.698 12.3379 78.3636 11.6713 78.3636 10.8336C78.3636 9.996 77.698 9.34644 76.8792 9.34644C76.043 9.34644 75.3774 9.996 75.3774 10.8336C75.3774 11.6713 76.043 12.3379 76.8792 12.3379ZM75.5481 22.2182H78.1933V13.6712H75.5481V22.2182Z" fill="#4845D2"/>
<path d="M79.7324 26.3204H82.3262V21.3632C82.8215 22.0128 83.9473 22.4573 85.1254 22.4573C87.6676 22.4573 89.2035 20.5086 89.1348 17.8077C89.0668 15.0556 87.4801 13.3975 85.1082 13.3975C83.8965 13.3975 82.7535 13.9274 82.2754 14.7137L82.1387 13.671H79.7324V26.3204ZM82.3777 17.9444C82.3777 16.6624 83.2309 15.8077 84.4598 15.8077C85.7051 15.8077 86.4902 16.6795 86.4902 17.9444C86.4902 19.2094 85.7051 20.0812 84.4598 20.0812C83.2309 20.0812 82.3777 19.2265 82.3777 17.9444Z" fill="#4845D2"/>
<path d="M89.415 19.5171C89.483 21.2436 90.8486 22.4401 92.9986 22.4401C95.0635 22.4401 96.4971 21.3461 96.4971 19.5855C96.4971 18.3205 95.7455 17.4829 94.3463 17.1411L92.8275 16.7649C92.2814 16.6282 91.9408 16.4915 91.9408 16.0471C91.9408 15.6026 92.2986 15.312 92.8275 15.312C93.4252 15.312 93.8174 15.7051 93.8002 16.2864H96.1728C96.1041 14.5086 94.7564 13.3975 92.8791 13.3975C90.9846 13.3975 89.5689 14.5257 89.5689 16.235C89.5689 17.3804 90.2002 18.3205 91.8893 18.765L93.3908 19.1581C93.8346 19.2777 94.0221 19.4829 94.0221 19.7735C94.0221 20.2008 93.6299 20.4744 92.9643 20.4744C92.1963 20.4744 91.7869 20.1154 91.7869 19.5171H89.415Z" fill="#4845D2"/>
<path d="M100.519 22.4403C101.56 22.4403 102.601 21.9617 103.13 21.2608L103.301 22.2181H105.775V13.6711H103.147V18.1156C103.147 19.3976 102.771 20.0985 101.56 20.0985C100.621 20.0985 100.007 19.6711 100.007 18.0814V13.6711H97.3792V19.0386C97.3792 21.0728 98.5057 22.4403 100.519 22.4403Z" fill="#4845D2"/>
<path d="M109.942 22.2181V17.5515C109.942 16.1156 110.71 15.7054 111.461 15.7054C112.297 15.7054 112.843 16.2182 112.843 17.278V22.2181H115.437V17.5515C115.437 16.0985 116.188 15.6883 116.939 15.6883C117.774 15.6883 118.338 16.2011 118.338 17.278V22.2181H120.898V16.6284C120.898 14.6797 119.874 13.3806 117.672 13.3806C116.444 13.3806 115.437 13.9789 114.993 14.9019C114.481 13.9789 113.594 13.3806 112.178 13.3806C111.239 13.3806 110.369 13.8079 109.857 14.4917L109.755 13.6712H107.297V22.2181H109.942Z" fill="#4845D2"/>
<path fill-rule="evenodd" clip-rule="evenodd" d="M33.3329 4.07129C30.5136 4.07129 27.8399 5.32574 26.035 7.49537L19.6139 15.2142L23.3217 9.6427L17.1671 12.285C16.3854 12.6206 16.1893 13.6407 16.7906 14.2431L18.7712 16.2271L17.7599 17.4427L19.9847 19.6713L21.1981 18.6583L23.1788 20.6423C23.78 21.2446 24.7985 21.0482 25.1334 20.2653L27.7711 14.0999L22.2094 17.8141L29.9148 11.3818C32.0806 9.57383 33.3329 6.8955 33.3329 4.07129ZM27.215 10.2C27.8293 10.8154 28.8253 10.8154 29.4397 10.2C30.054 9.58455 30.054 8.5868 29.4397 7.97144C28.8253 7.356 27.8293 7.356 27.215 7.97144C26.6006 8.5868 26.6006 9.58455 27.215 10.2Z" fill="#A3A2FF"/>
<path opacity="0.6" d="M0.720459 16.5225C2.19347 21.578 11.1491 21.3144 17.2935 18.1455C13.1791 20.205 3.44626 20.5984 0.720459 16.5225Z" fill="#424242"/>
<path opacity="0.6" d="M18.5974 33.7549C14.4484 35.4802 16.1484 26.2294 18.1284 21.8938C16.6851 25.7475 15.4531 34.2428 19.1677 33.2946L18.9482 33.5022C18.8134 33.6044 18.7142 33.6754 18.5974 33.7549Z" fill="#424242"/>
</svg>
