<svg width="172" height="36" viewBox="0 0 172 36" fill="none" xmlns="http://www.w3.org/2000/svg">
<path d="M24.693 29.129L1.78427 13.4055C-0.537248 11.8122 0.251915 8.49463 3.14679 7.71449L27.4946 1.1392C28.0104 0.954023 28.5631 0.893912 29.1069 0.963858C29.6507 1.0338 30.1699 1.23179 30.6214 1.54138C31.0728 1.85097 31.4436 2.26324 31.7029 2.74396C31.9621 3.22469 32.1024 3.76002 32.1121 4.3055L30.6692 26.6031C30.4981 29.2497 27.0145 30.7223 24.693 29.129Z" fill="#E9327C"/>
<path d="M17.4272 33.0107L3.93097 6.74895C3.62245 6.14817 3.4867 5.47426 3.53866 4.80157C3.59062 4.12889 3.82829 3.48354 4.22543 2.93672C4.6226 2.3899 5.16381 1.96283 5.78941 1.70261C6.415 1.44239 7.10067 1.35914 7.77079 1.46205L32.7827 5.30303C33.3585 5.39147 33.905 5.61465 34.3774 5.95421C34.8496 6.29379 35.2341 6.74005 35.4993 7.2563C35.7644 7.77255 35.9027 8.34405 35.9026 8.92382C35.9024 9.50358 35.764 10.075 35.4988 10.5912L23.9768 33.012C23.6673 33.611 23.1979 34.1137 22.6201 34.4645C22.0423 34.8154 21.3785 35.0009 20.7016 35.0008C20.0247 35.0007 19.3609 34.8149 18.7832 34.4639C18.2055 34.1127 17.7364 33.6099 17.4272 33.0107Z" fill="#1DACE3"/>
<path d="M32.0509 5.18992L19.5826 3.27515L4.27441 7.41091L10.3847 19.3049L24.6931 29.1291C25.0087 29.3434 25.3559 29.5076 25.7223 29.6157L31.157 19.0406L32.0509 5.18992Z" fill="#001A49"/>
<path d="M95.2056 8.25975C95.2056 7.79861 95.343 7.34785 95.6004 6.96442C95.858 6.58101 96.2239 6.28217 96.6521 6.10569C97.0803 5.92924 97.5514 5.88306 98.006 5.97302C98.4604 6.06299 98.878 6.28505 99.2057 6.61111C99.5335 6.93718 99.7565 7.35262 99.847 7.80489C99.9374 8.25717 99.891 8.72597 99.7136 9.15199C99.5363 9.57802 99.2359 9.94216 98.8507 10.1983C98.4653 10.4545 98.0122 10.5913 97.5488 10.5913C96.9292 10.585 96.337 10.3373 95.8988 9.90145C95.4608 9.46555 95.2118 8.87616 95.2056 8.25975ZM95.5963 11.731H99.5026V24.6833H95.5963V11.731Z" fill="#001A49"/>
<path d="M116.371 18.2072C116.417 19.0633 116.291 19.9199 116.003 20.7278C115.714 21.5355 115.268 22.2786 114.69 22.9143C114.112 23.5499 113.413 24.0655 112.634 24.4315C111.855 24.7974 111.011 25.0066 110.15 25.0467C109.426 25.0859 108.702 24.9644 108.031 24.6911C107.36 24.4177 106.759 23.9993 106.27 23.4661V29.8648H102.365V11.731H106.27V12.9482C106.759 12.4152 107.36 11.997 108.031 11.7239C108.702 11.4507 109.426 11.3295 110.15 11.3688C111.011 11.4088 111.855 11.6178 112.634 11.9836C113.413 12.3495 114.112 12.865 114.69 13.5005C115.268 14.1361 115.714 14.879 116.003 15.6868C116.291 16.4945 116.417 17.351 116.371 18.2072ZM112.466 18.2072C112.451 17.6007 112.256 17.0123 111.906 16.5154C111.557 16.0186 111.067 15.6354 110.5 15.4139C109.932 15.1923 109.312 15.1424 108.716 15.2701C108.12 15.3978 107.575 15.6975 107.149 16.1318C106.723 16.5661 106.436 17.1157 106.323 17.7118C106.21 18.3078 106.276 18.9239 106.512 19.4828C106.749 20.0418 107.147 20.5187 107.655 20.8542C108.163 21.1896 108.759 21.3684 109.368 21.3684C109.787 21.3872 110.205 21.3176 110.595 21.1643C110.984 21.011 111.337 20.7773 111.63 20.4788C111.922 20.1803 112.148 19.8236 112.292 19.432C112.436 19.0405 112.496 18.623 112.466 18.2072Z" fill="#001A49"/>
<path d="M128.425 20.7953C128.425 23.7748 125.821 25.0441 123.009 25.0441C121.873 25.1464 120.732 24.9071 119.735 24.3574C118.737 23.8077 117.928 22.9727 117.412 21.9604L120.796 20.0443C120.934 20.5123 121.228 20.919 121.631 21.1965C122.034 21.474 122.52 21.6055 123.009 21.569C123.946 21.569 124.414 21.2832 124.414 20.766C124.414 19.3404 118.01 20.0926 118.01 15.61C118.01 12.7867 120.404 11.3624 123.118 11.3624C124.135 11.3306 125.143 11.5709 126.035 12.0583C126.929 12.5457 127.674 13.2623 128.193 14.1336L124.862 15.9213C124.716 15.5813 124.473 15.2914 124.163 15.0882C123.853 14.8847 123.489 14.7769 123.118 14.7778C122.441 14.7778 122.024 15.0319 122.024 15.5033C122.021 16.9898 128.425 16.0051 128.425 20.7953Z" fill="#001A49"/>
<path d="M142.697 11.731V24.6833H138.792V23.4636C138.341 24.0009 137.768 24.4243 137.121 24.6991C136.474 24.9738 135.771 25.0921 135.068 25.0442C132.439 25.0442 130.201 23.179 130.201 19.681V11.731H134.106V19.1143C134.072 19.4231 134.108 19.7353 134.209 20.029C134.31 20.3228 134.473 20.5913 134.689 20.8157C134.905 21.04 135.167 21.2149 135.457 21.3281C135.748 21.4414 136.059 21.4902 136.371 21.4713C137.802 21.4713 138.797 20.6429 138.797 18.8031V11.731H142.697Z" fill="#001A49"/>
<path d="M165.08 16.7294V24.6833H161.175V17.0674C161.175 15.7727 160.549 14.943 159.3 14.943C157.998 14.943 157.27 15.8502 157.27 17.3787V24.6833H153.364V17.0674C153.364 15.7727 152.739 14.943 151.489 14.943C150.188 14.943 149.459 15.8502 149.459 17.3787V24.6833H145.554V11.7309H149.465V12.9177C149.87 12.3892 150.401 11.9702 151.01 11.6987C151.619 11.4273 152.288 11.3121 152.954 11.3637C153.622 11.3312 154.288 11.4716 154.886 11.7711C155.483 12.0706 155.993 12.519 156.364 13.0727C156.797 12.4934 157.371 12.0327 158.031 11.7339C158.691 11.435 159.418 11.3076 160.14 11.3637C163.129 11.3688 165.08 13.492 165.08 16.7294Z" fill="#001A49"/>
<path d="M168.388 11.6508C169.99 11.6508 171.287 10.3595 171.287 8.76656C171.287 7.17365 169.99 5.88232 168.388 5.88232C166.787 5.88232 165.49 7.17365 165.49 8.76656C165.49 10.3595 166.787 11.6508 168.388 11.6508Z" fill="#001A49"/>
<path d="M41.8899 5.77295H45.7961V24.6832H41.8899V5.77295ZM48.0078 18.207C48.0036 16.849 48.4043 15.5203 49.1594 14.3893C49.9145 13.258 50.9899 12.3752 52.2495 11.8527C53.5092 11.33 54.8963 11.1911 56.2354 11.4534C57.5744 11.7157 58.8052 12.3674 59.7717 13.3262C60.7382 14.2848 61.3972 15.5072 61.6649 16.8388C61.9327 18.1704 61.7975 19.551 61.2762 20.806C60.755 22.0609 59.8712 23.1338 58.7367 23.8887C57.6023 24.6435 56.2682 25.0466 54.9034 25.0466C53.997 25.0561 53.0978 24.886 52.2582 24.546C51.4187 24.2059 50.6556 23.7028 50.0137 23.0661C49.3716 22.4293 48.8636 21.6716 48.5192 20.8374C48.1748 20.0031 48.0011 19.1089 48.0078 18.207ZM57.9017 18.207C57.8864 17.6211 57.6979 17.0529 57.3597 16.5733C57.0215 16.0936 56.5487 15.7238 56.0003 15.51C55.4519 15.2965 54.8525 15.2483 54.2768 15.3719C53.7012 15.4954 53.1749 15.7853 52.7639 16.2048C52.3528 16.6245 52.0753 17.1553 51.9659 17.731C51.8566 18.3069 51.9202 18.9019 52.149 19.4419C52.3777 19.9817 52.7614 20.4426 53.2521 20.7667C53.7427 21.0908 54.3184 21.2638 54.9073 21.264C55.3105 21.2755 55.7119 21.2035 56.0858 21.053C56.4598 20.9025 56.7983 20.6765 57.0801 20.3892C57.362 20.1021 57.581 19.7599 57.7232 19.3843C57.8655 19.0086 57.928 18.6077 57.9068 18.207H57.9017ZM77.3741 11.727V24.0326C77.3741 28.3844 73.9634 30.2229 70.5015 30.2229C69.283 30.3144 68.0626 30.0703 66.9742 29.5174C65.8858 28.9646 64.9714 28.1241 64.3312 27.0884L67.6628 25.1711C67.9318 25.7116 68.3602 26.1576 68.8908 26.4494C69.4213 26.7412 70.0287 26.8648 70.6318 26.8038C71.0168 26.856 71.4085 26.8217 71.7784 26.7032C72.1482 26.5846 72.4864 26.3851 72.7684 26.1191C73.0502 25.8531 73.2684 25.5276 73.407 25.1664C73.5455 24.8053 73.6008 24.4178 73.5688 24.0326V22.8408C73.1114 23.3973 72.5292 23.8395 71.8691 24.1319C71.209 24.4242 70.4891 24.5587 69.7673 24.5244C68.0491 24.4711 66.4191 23.7546 65.2226 22.5265C64.026 21.2983 63.3569 19.6551 63.3569 17.9446C63.3569 16.234 64.026 14.5908 65.2226 13.3626C66.4191 12.1345 68.0491 11.4179 69.7673 11.3648C70.4891 11.3305 71.209 11.4648 71.8691 11.7572C72.5292 12.0496 73.1114 12.4918 73.5688 13.0484V11.727H77.3741ZM73.5739 17.944C73.5997 17.3183 73.4367 16.6994 73.1061 16.1667C72.7755 15.6339 72.2923 15.2117 71.7186 14.9544C71.145 14.6971 70.507 14.6164 69.8869 14.7228C69.2668 14.8291 68.6928 15.1176 68.2387 15.5511C67.7847 15.9846 67.4713 16.5433 67.339 17.1553C67.2066 17.7675 67.2612 18.4049 67.4959 18.986C67.7305 19.5669 68.1345 20.0647 68.6558 20.4154C69.177 20.7661 69.7919 20.9536 70.4211 20.954C70.8314 20.9826 71.2432 20.9255 71.63 20.7864C72.0168 20.6473 72.37 20.4291 72.667 20.1459C72.9639 19.8628 73.1981 19.5209 73.3543 19.1424C73.5104 18.7638 73.5853 18.3568 73.5739 17.9478V17.944ZM79.5858 18.1981C79.5816 16.8401 79.9823 15.5114 80.7374 14.3804C81.4925 13.2492 82.5679 12.3663 83.8275 11.8438C85.0872 11.3211 86.4743 11.1822 87.8134 11.4445C89.1524 11.7068 90.3831 12.3585 91.3497 13.3173C92.3163 14.2759 92.9752 15.4983 93.2429 16.8299C93.5107 18.1615 93.3755 19.5421 92.8542 20.7971C92.333 22.052 91.4492 23.1249 90.3147 23.8798C89.1803 24.6346 87.8462 25.0377 86.4814 25.0377C85.5758 25.0472 84.6773 24.8773 83.8384 24.5378C82.9994 24.1985 82.2367 23.6961 81.5949 23.0603C80.9529 22.4245 80.4448 21.6679 80.0999 20.8346C79.7549 20.0013 79.5802 19.1081 79.5858 18.207V18.1981ZM89.4797 18.1981C89.4647 17.612 89.2762 17.0433 88.938 16.5631C88.5998 16.0831 88.1267 15.713 87.5781 15.499C87.0294 15.285 86.4296 15.2369 85.8535 15.3605C85.2775 15.484 84.7509 15.7739 84.3397 16.1937C83.9284 16.6137 83.6507 17.1449 83.5413 17.721C83.4319 18.2971 83.4958 18.8926 83.7247 19.4327C83.9538 19.973 84.3378 20.434 84.8288 20.7582C85.3199 21.0823 85.8961 21.2551 86.4853 21.2551C86.8874 21.2657 87.2872 21.1936 87.6599 21.0433C88.0327 20.893 88.3702 20.6676 88.6514 20.3815C88.9324 20.0953 89.1512 19.7544 89.2937 19.3803C89.4363 19.0061 89.4997 18.6066 89.4797 18.207V18.1981Z" fill="#001A49"/>
</svg>
