<svg width="138" height="36" viewBox="0 0 138 36" fill="none" xmlns="http://www.w3.org/2000/svg">
<g clip-path="url(#clip0_2129_2)">
<path d="M46.2352 9.25562H43.0244V23.8026H51.9129V20.9522H46.2352V9.25562Z" fill="#243A5A"/>
<path d="M52.2195 18.8682C52.2195 21.9742 54.2948 24.0383 57.4272 24.0383C60.5401 24.0383 62.6154 21.9742 62.6154 18.8682C62.6154 15.7622 60.5401 13.6785 57.4272 13.6785C54.2948 13.6785 52.2195 15.7622 52.2195 18.8682ZM55.254 18.8485C55.254 17.3742 56.1155 16.3913 57.4272 16.3913C58.7194 16.3913 59.5809 17.3742 59.5809 18.8485C59.5809 20.3426 58.7194 21.3255 57.4272 21.3255C56.1155 21.3255 55.254 20.3426 55.254 18.8485Z" fill="#243A5A"/>
<path d="M63.1004 18.7112C63.1004 21.6795 65.0192 23.6846 67.7405 23.6846C69.0522 23.6846 70.1877 23.2128 70.7555 22.4462V23.8026C70.7555 25.159 69.9136 26.0632 68.4257 26.0632C67.0944 26.0632 66.1742 25.4342 66.1155 24.3137H63.0613C63.3354 27.0068 65.4107 28.8153 68.2495 28.8153C71.5973 28.8153 73.7118 26.6333 73.7118 23.1735V13.9736H70.9904L70.8338 14.9761C70.2856 14.1701 69.1305 13.6394 67.7992 13.6394C65.0582 13.6394 63.1004 15.7035 63.1004 18.7112ZM66.1546 18.6325C66.1546 17.2171 67.0944 16.2735 68.2886 16.2735C69.6787 16.2735 70.6968 17.1975 70.6968 18.6325C70.6968 20.0676 69.6982 21.0505 68.3082 21.0505C67.114 21.0505 66.1546 20.0676 66.1546 18.6325Z" fill="#243A5A"/>
<path d="M74.5906 18.8682C74.5906 21.9742 76.6659 24.0383 79.7984 24.0383C82.9113 24.0383 84.9865 21.9742 84.9865 18.8682C84.9865 15.7622 82.9113 13.6785 79.7984 13.6785C76.6659 13.6785 74.5906 15.7622 74.5906 18.8682ZM77.6252 18.8485C77.6252 17.3742 78.4866 16.3913 79.7984 16.3913C81.0905 16.3913 81.952 17.3742 81.952 18.8485C81.952 20.3426 81.0905 21.3255 79.7984 21.3255C78.4866 21.3255 77.6252 20.3426 77.6252 18.8485Z" fill="#243A5A"/>
<path d="M87.5859 12.4402C88.5256 12.4402 89.2892 11.6734 89.2892 10.7103C89.2892 9.747 88.5256 9 87.5859 9C86.6265 9 85.863 9.747 85.863 10.7103C85.863 11.6734 86.6265 12.4402 87.5859 12.4402ZM86.0588 23.8025H89.0934V13.9735H86.0588V23.8025Z" fill="#243A5A"/>
<path d="M90.8604 28.5204H93.8362V22.8196C94.4036 23.5666 95.6961 24.0777 97.0469 24.0777C99.9636 24.0777 101.726 21.8367 101.648 18.7307C101.569 15.5658 99.7485 13.6589 97.0272 13.6589C95.637 13.6589 94.3256 14.2683 93.7771 15.1726L93.6202 13.9735H90.8604V28.5204ZM93.8945 18.8879C93.8945 17.4136 94.8733 16.4308 96.2832 16.4308C97.712 16.4308 98.6128 17.4333 98.6128 18.8879C98.6128 20.3427 97.712 21.3452 96.2832 21.3452C94.8733 21.3452 93.8945 20.3623 93.8945 18.8879Z" fill="#243A5A"/>
<path d="M101.969 20.6965C102.047 22.682 103.614 24.058 106.08 24.058C108.449 24.058 110.094 22.7999 110.094 20.7751C110.094 19.3205 109.233 18.3572 107.626 17.964L105.885 17.5315C105.258 17.3743 104.867 17.217 104.867 16.7059C104.867 16.1948 105.277 15.8606 105.885 15.8606C106.57 15.8606 107.02 16.3128 107.001 16.9811H109.722C109.643 14.9367 108.097 13.6589 105.943 13.6589C103.77 13.6589 102.145 14.9564 102.145 16.9222C102.145 18.2392 102.87 19.3205 104.807 19.8316L106.53 20.2837C107.039 20.4213 107.254 20.6572 107.254 20.9913C107.254 21.4828 106.805 21.7974 106.041 21.7974C105.16 21.7974 104.69 21.3845 104.69 20.6965H101.969Z" fill="#243A5A"/>
<path d="M114.709 24.0581C115.903 24.0581 117.097 23.5077 117.704 22.7017L117.9 23.8026H120.739V13.9736H117.724V19.0847C117.724 20.559 117.294 21.365 115.903 21.365C114.826 21.365 114.121 20.8736 114.121 19.0454V13.9736H111.106V20.1462C111.106 22.4856 112.399 24.0581 114.709 24.0581Z" fill="#243A5A"/>
<path d="M125.52 23.8026V18.436C125.52 16.7846 126.401 16.3129 127.263 16.3129C128.222 16.3129 128.848 16.9026 128.848 18.1214V23.8026H131.824V18.436C131.824 16.765 132.685 16.2932 133.547 16.2932C134.506 16.2932 135.152 16.8829 135.152 18.1214V23.8026H138.09V17.3744C138.09 15.1334 136.914 13.6394 134.389 13.6394C132.979 13.6394 131.824 14.3274 131.315 15.3889C130.728 14.3274 129.71 13.6394 128.085 13.6394C127.008 13.6394 126.01 14.1308 125.422 14.9171L125.305 13.9736H122.485V23.8026H125.52Z" fill="#243A5A"/>
<path d="M0 18C0 9.51471 0 5.27207 2.62532 2.63604C5.25064 0 9.47603 0 17.9268 0C26.3776 0 30.603 0 33.2284 2.63604C35.8537 5.27207 35.8537 9.51471 35.8537 18C35.8537 26.4853 35.8537 30.7279 33.2284 33.364C30.603 36 26.3776 36 17.9268 36C9.47603 36 5.25064 36 2.62532 33.364C0 30.7279 0 26.4853 0 18Z" fill="#243A5A"/>
<path d="M21.5122 23.3999C22.0072 23.3999 22.4176 23.8068 22.3192 24.294C22.1454 25.1544 21.7233 25.9519 21.0958 26.5819C20.2554 27.4258 19.1154 27.8999 17.9268 27.8999C16.7382 27.8999 15.5983 27.4258 14.7578 26.5819C14.1304 25.9519 13.7082 25.1544 13.5345 24.294C13.436 23.8068 13.8464 23.3999 14.3414 23.3999H21.5122Z" fill="#2DF8BB"/>
<path d="M23.3965 15.9988C22.9183 16.1274 22.6255 16.6297 22.868 17.0631C23.1232 17.5192 23.4761 17.9172 23.9056 18.2262C24.5798 18.7113 25.4007 18.9468 26.2284 18.8922C27.0561 18.8378 27.8394 18.4968 28.4448 17.9275C29.0503 17.3582 29.4403 16.5956 29.5486 15.7698C29.6569 14.9441 29.4767 14.1062 29.0387 13.3989C28.6006 12.6917 27.9319 12.1588 27.1464 11.891C26.3609 11.6233 25.5073 11.6373 24.731 11.9307C24.2366 12.1175 23.7931 12.4103 23.429 12.7845C23.0831 13.1401 23.2365 13.7015 23.6652 13.9499L24.1199 14.2136C24.8114 14.6145 24.6751 15.6548 23.9037 15.8624L23.3965 15.9988Z" fill="#2DF8BB"/>
<path d="M12.4571 15.9988C12.9353 16.1274 13.2282 16.6297 12.9857 17.0631C12.7305 17.5192 12.3775 17.9172 11.9482 18.2262C11.274 18.7113 10.453 18.9468 9.62533 18.8922C8.79758 18.8378 8.01427 18.4968 7.40886 17.9275C6.80344 17.3582 6.41336 16.5956 6.30509 15.7698C6.19682 14.9441 6.37705 14.1062 6.81509 13.3989C7.25311 12.6917 7.92183 12.1588 8.70731 11.891C9.49276 11.6233 10.3464 11.6373 11.1228 11.9307C11.6171 12.1175 12.0607 12.4103 12.4248 12.7845C12.7707 13.1401 12.6172 13.7015 12.1885 13.9499L11.7338 14.2136C11.0423 14.6145 11.1787 15.6548 11.95 15.8624L12.4571 15.9988Z" fill="#2DF8BB"/>
</g>
<defs>
<clipPath id="clip0_2129_2">
<rect width="138" height="36" fill="white"/>
</clipPath>
</defs>
</svg>
