<svg width="170" height="50" viewBox="0 0 170 50" fill="none" xmlns="http://www.w3.org/2000/svg">
<rect width="170" height="50" rx="8" fill="#0F1410"/>
<path d="M13.0646 40.5712L12.9713 40.4818C12.6062 40.0949 12.3906 39.494 12.3906 38.7159V38.899V11.104V11.2876C12.3906 10.4451 12.642 9.81041 13.0631 9.42987L28.6095 25.001L13.0646 40.5712Z" fill="url(#paint0_linear_1873_265)"/>
<path d="M33.7922 30.1931L28.6094 25.001L33.7918 19.8098L40.0484 23.3701C40.8429 23.8223 41.289 24.405 41.3635 25.0005V25.0029C41.289 25.597 40.8429 26.1803 40.0484 26.6323L33.7923 30.1931" fill="url(#paint1_linear_1873_265)"/>
<path d="M14.1731 40.98C13.7389 40.9804 13.3599 40.8385 13.0645 40.5714V40.571L28.6093 25.0009L33.7922 30.193L15.5788 40.5583C15.0749 40.8445 14.5975 40.98 14.1731 40.98Z" fill="url(#paint2_linear_1873_265)"/>
<path d="M28.6095 25.0011L13.063 9.42995C13.3585 9.16335 13.737 9.02197 14.1707 9.02197C14.5962 9.02197 15.074 9.15793 15.5789 9.44464L33.7918 19.8099L28.6094 25.0011" fill="url(#paint3_linear_1873_265)"/>
<path d="M53.696 19H52.2983L55.4389 10.2727H56.9602L60.1009 19H58.7031L56.2358 11.858H56.1676L53.696 19ZM53.9304 15.5824H58.4645V16.6903H53.9304V15.5824ZM66.038 12.4545L63.6644 19H62.3008L59.9229 12.4545H61.2908L62.9485 17.4915H63.0167L64.6701 12.4545H66.038ZM68.9528 19.1449C68.538 19.1449 68.163 19.0682 67.8278 18.9148C67.4925 18.7585 67.2269 18.5327 67.0309 18.2372C66.8377 17.9418 66.7411 17.5795 66.7411 17.1506C66.7411 16.7812 66.8121 16.4773 66.9542 16.2386C67.0962 16 67.288 15.8111 67.5295 15.6719C67.771 15.5327 68.0408 15.4276 68.3391 15.3565C68.6374 15.2855 68.9414 15.2315 69.2511 15.1946C69.6431 15.1491 69.9613 15.1122 70.2056 15.0838C70.4499 15.0526 70.6275 15.0028 70.7383 14.9347C70.8491 14.8665 70.9045 14.7557 70.9045 14.6023V14.5724C70.9045 14.2003 70.7994 13.9119 70.5891 13.7074C70.3817 13.5028 70.0721 13.4006 69.6602 13.4006C69.2312 13.4006 68.8931 13.4957 68.646 13.6861C68.4016 13.8736 68.2326 14.0824 68.1388 14.3125L66.9414 14.0398C67.0835 13.642 67.2908 13.321 67.5636 13.0767C67.8391 12.8295 68.1559 12.6506 68.5138 12.5398C68.8718 12.4261 69.2482 12.3693 69.6431 12.3693C69.9045 12.3693 70.1815 12.4006 70.4741 12.4631C70.7695 12.5227 71.0451 12.6335 71.3008 12.7955C71.5593 12.9574 71.771 13.1889 71.9357 13.4901C72.1005 13.7884 72.1829 14.1761 72.1829 14.6534V19H70.9386V18.1051H70.8874C70.805 18.2699 70.6815 18.4318 70.5167 18.5909C70.3519 18.75 70.1403 18.8821 69.8817 18.9872C69.6232 19.0923 69.3136 19.1449 68.9528 19.1449ZM69.2298 18.1222C69.582 18.1222 69.8832 18.0526 70.1332 17.9134C70.386 17.7741 70.5778 17.5923 70.7085 17.3679C70.842 17.1406 70.9087 16.8977 70.9087 16.6392V15.7955C70.8633 15.8409 70.7752 15.8835 70.6445 15.9233C70.5167 15.9602 70.3704 15.9929 70.2056 16.0213C70.0408 16.0469 69.8803 16.071 69.7241 16.0938C69.5678 16.1136 69.4371 16.1307 69.332 16.1449C69.0849 16.1761 68.859 16.2287 68.6545 16.3026C68.4528 16.3764 68.2908 16.483 68.1687 16.6222C68.0494 16.7585 67.9897 16.9403 67.9897 17.1676C67.9897 17.483 68.1062 17.7216 68.3391 17.8835C68.5721 18.0426 68.869 18.1222 69.2298 18.1222ZM73.88 19V12.4545H75.1541V19H73.88ZM74.5234 11.4446C74.3018 11.4446 74.1115 11.3707 73.9524 11.223C73.7962 11.0724 73.718 10.8935 73.718 10.6861C73.718 10.4759 73.7962 10.2969 73.9524 10.1491C74.1115 9.99858 74.3018 9.9233 74.5234 9.9233C74.745 9.9233 74.9339 9.99858 75.0902 10.1491C75.2493 10.2969 75.3288 10.4759 75.3288 10.6861C75.3288 10.8935 75.2493 11.0724 75.0902 11.223C74.9339 11.3707 74.745 11.4446 74.5234 11.4446ZM78.1424 10.2727V19H76.8683V10.2727H78.1424ZM81.7614 19.1449C81.3466 19.1449 80.9716 19.0682 80.6364 18.9148C80.3011 18.7585 80.0355 18.5327 79.8395 18.2372C79.6463 17.9418 79.5497 17.5795 79.5497 17.1506C79.5497 16.7812 79.6207 16.4773 79.7628 16.2386C79.9048 16 80.0966 15.8111 80.3381 15.6719C80.5795 15.5327 80.8494 15.4276 81.1477 15.3565C81.446 15.2855 81.75 15.2315 82.0597 15.1946C82.4517 15.1491 82.7699 15.1122 83.0142 15.0838C83.2585 15.0526 83.4361 15.0028 83.5469 14.9347C83.6577 14.8665 83.7131 14.7557 83.7131 14.6023V14.5724C83.7131 14.2003 83.608 13.9119 83.3977 13.7074C83.1903 13.5028 82.8807 13.4006 82.4688 13.4006C82.0398 13.4006 81.7017 13.4957 81.4545 13.6861C81.2102 13.8736 81.0412 14.0824 80.9474 14.3125L79.75 14.0398C79.892 13.642 80.0994 13.321 80.3722 13.0767C80.6477 12.8295 80.9645 12.6506 81.3224 12.5398C81.6804 12.4261 82.0568 12.3693 82.4517 12.3693C82.7131 12.3693 82.9901 12.4006 83.2827 12.4631C83.5781 12.5227 83.8537 12.6335 84.1094 12.7955C84.3679 12.9574 84.5795 13.1889 84.7443 13.4901C84.9091 13.7884 84.9915 14.1761 84.9915 14.6534V19H83.7472V18.1051H83.696C83.6136 18.2699 83.4901 18.4318 83.3253 18.5909C83.1605 18.75 82.9489 18.8821 82.6903 18.9872C82.4318 19.0923 82.1222 19.1449 81.7614 19.1449ZM82.0384 18.1222C82.3906 18.1222 82.6918 18.0526 82.9418 17.9134C83.1946 17.7741 83.3864 17.5923 83.517 17.3679C83.6506 17.1406 83.7173 16.8977 83.7173 16.6392V15.7955C83.6719 15.8409 83.5838 15.8835 83.4531 15.9233C83.3253 15.9602 83.179 15.9929 83.0142 16.0213C82.8494 16.0469 82.6889 16.071 82.5327 16.0938C82.3764 16.1136 82.2457 16.1307 82.1406 16.1449C81.8935 16.1761 81.6676 16.2287 81.4631 16.3026C81.2614 16.3764 81.0994 16.483 80.9773 16.6222C80.858 16.7585 80.7983 16.9403 80.7983 17.1676C80.7983 17.483 80.9148 17.7216 81.1477 17.8835C81.3807 18.0426 81.6776 18.1222 82.0384 18.1222ZM86.7908 19V10.2727H88.065V13.5156H88.1417C88.2156 13.3793 88.3221 13.2216 88.4613 13.0426C88.6005 12.8636 88.7937 12.7074 89.0408 12.5739C89.288 12.4375 89.6147 12.3693 90.021 12.3693C90.5494 12.3693 91.021 12.5028 91.4357 12.7699C91.8505 13.0369 92.1758 13.4219 92.4116 13.9247C92.6502 14.4276 92.7695 15.0327 92.7695 15.7401C92.7695 16.4474 92.6516 17.054 92.4158 17.5597C92.18 18.0625 91.8562 18.4503 91.4442 18.723C91.0323 18.9929 90.5621 19.1278 90.0337 19.1278C89.636 19.1278 89.3107 19.0611 89.0579 18.9276C88.8079 18.794 88.6119 18.6378 88.4698 18.4588C88.3278 18.2798 88.2184 18.1207 88.1417 17.9815H88.0352V19H86.7908ZM88.0394 15.7273C88.0394 16.1875 88.1062 16.5909 88.2397 16.9375C88.3732 17.2841 88.5664 17.5554 88.8192 17.7514C89.0721 17.9446 89.3817 18.0412 89.7482 18.0412C90.1289 18.0412 90.4471 17.9403 90.7028 17.7386C90.9585 17.5341 91.1516 17.2571 91.2823 16.9077C91.4158 16.5582 91.4826 16.1648 91.4826 15.7273C91.4826 15.2955 91.4173 14.9077 91.2866 14.5639C91.1587 14.2202 90.9656 13.9489 90.707 13.75C90.4513 13.5511 90.1317 13.4517 89.7482 13.4517C89.3789 13.4517 89.0664 13.5469 88.8107 13.7372C88.5579 13.9276 88.3661 14.1932 88.2354 14.5341C88.1048 14.875 88.0394 15.2727 88.0394 15.7273ZM95.4744 10.2727V19H94.2003V10.2727H95.4744ZM100.01 19.1321C99.3647 19.1321 98.8093 18.9943 98.3434 18.7188C97.8803 18.4403 97.5224 18.0497 97.2695 17.5469C97.0195 17.0412 96.8945 16.4489 96.8945 15.7699C96.8945 15.0994 97.0195 14.5085 97.2695 13.9972C97.5224 13.4858 97.8746 13.0866 98.3263 12.7997C98.7809 12.5128 99.3121 12.3693 99.9201 12.3693C100.289 12.3693 100.647 12.4304 100.994 12.5526C101.341 12.6747 101.652 12.8665 101.927 13.1278C102.203 13.3892 102.42 13.7287 102.579 14.1463C102.738 14.5611 102.818 15.0653 102.818 15.6591V16.1108H97.6147V15.1562H101.569C101.569 14.821 101.501 14.5241 101.365 14.2656C101.228 14.0043 101.037 13.7983 100.789 13.6477C100.545 13.4972 100.258 13.4219 99.9286 13.4219C99.5707 13.4219 99.2582 13.5099 98.9911 13.6861C98.7269 13.8594 98.5224 14.0866 98.3775 14.3679C98.2354 14.6463 98.1644 14.9489 98.1644 15.2756V16.0213C98.1644 16.4588 98.2411 16.831 98.3945 17.1378C98.5508 17.4446 98.7681 17.679 99.0465 17.8409C99.3249 18 99.6502 18.0795 100.022 18.0795C100.264 18.0795 100.484 18.0455 100.683 17.9773C100.882 17.9062 101.054 17.8011 101.199 17.6619C101.343 17.5227 101.454 17.3509 101.531 17.1463L102.737 17.3636C102.64 17.7187 102.467 18.0298 102.217 18.2969C101.97 18.5611 101.659 18.767 101.284 18.9148C100.912 19.0597 100.487 19.1321 100.01 19.1321ZM115.091 14.6364C115.091 15.5682 114.92 16.3693 114.579 17.0398C114.238 17.7074 113.771 18.2216 113.177 18.5824C112.586 18.9403 111.914 19.1193 111.162 19.1193C110.406 19.1193 109.731 18.9403 109.137 18.5824C108.547 18.2216 108.081 17.706 107.74 17.0355C107.399 16.3651 107.228 15.5653 107.228 14.6364C107.228 13.7045 107.399 12.9048 107.74 12.2372C108.081 11.5668 108.547 11.0526 109.137 10.6946C109.731 10.3338 110.406 10.1534 111.162 10.1534C111.914 10.1534 112.586 10.3338 113.177 10.6946C113.771 11.0526 114.238 11.5668 114.579 12.2372C114.92 12.9048 115.091 13.7045 115.091 14.6364ZM113.787 14.6364C113.787 13.9261 113.672 13.3281 113.441 12.8423C113.214 12.3537 112.902 11.9844 112.504 11.7344C112.109 11.4815 111.662 11.3551 111.162 11.3551C110.659 11.3551 110.21 11.4815 109.815 11.7344C109.42 11.9844 109.108 12.3537 108.877 12.8423C108.65 13.3281 108.537 13.9261 108.537 14.6364C108.537 15.3466 108.65 15.946 108.877 16.4347C109.108 16.9205 109.42 17.2898 109.815 17.5426C110.21 17.7926 110.659 17.9176 111.162 17.9176C111.662 17.9176 112.109 17.7926 112.504 17.5426C112.902 17.2898 113.214 16.9205 113.441 16.4347C113.672 15.946 113.787 15.3466 113.787 14.6364ZM117.904 15.1136V19H116.63V12.4545H117.853V13.5199H117.934C118.085 13.1733 118.32 12.8949 118.641 12.6847C118.965 12.4744 119.373 12.3693 119.864 12.3693C120.31 12.3693 120.701 12.4631 121.036 12.6506C121.371 12.8352 121.631 13.1108 121.816 13.4773C122.001 13.8437 122.093 14.2969 122.093 14.8366V19H120.819V14.9901C120.819 14.5156 120.695 14.1449 120.448 13.8778C120.201 13.608 119.862 13.473 119.43 13.473C119.134 13.473 118.871 13.5369 118.641 13.6648C118.414 13.7926 118.234 13.9801 118.1 14.2273C117.969 14.4716 117.904 14.767 117.904 15.1136Z" fill="white"/>
<path d="M62.0611 31.0895C61.9545 30.7443 61.8075 30.4354 61.62 30.1626C61.4368 29.8857 61.2152 29.6491 60.9553 29.4531C60.6996 29.2571 60.4055 29.1101 60.0732 29.0121C59.7408 28.9098 59.3786 28.8587 58.9865 28.8587C58.2834 28.8587 57.657 29.0355 57.1072 29.3892C56.5575 29.7429 56.125 30.2628 55.8097 30.9489C55.4986 31.6307 55.343 32.4616 55.343 33.4418C55.343 34.4304 55.4986 35.2678 55.8097 35.9538C56.1207 36.6399 56.5533 37.1619 57.1072 37.5199C57.6612 37.8736 58.3047 38.0504 59.0376 38.0504C59.7024 38.0504 60.2777 37.9226 60.7635 37.6669C61.2536 37.4112 61.6307 37.049 61.8949 36.5803C62.1591 36.1072 62.2912 35.5533 62.2912 34.9183L62.8281 35.0014H59.2741V33.1477H64.5859V34.7202C64.5859 35.8409 64.3473 36.8104 63.87 37.6286C63.3928 38.4467 62.7365 39.0774 61.9013 39.5206C61.0661 39.9595 60.1072 40.179 59.0249 40.179C57.8189 40.179 56.7599 39.9084 55.848 39.3672C54.9403 38.8217 54.2308 38.0483 53.7195 37.0469C53.2124 36.0412 52.9588 34.848 52.9588 33.4673C52.9588 32.4105 53.108 31.4666 53.4062 30.6357C53.7088 29.8047 54.1307 29.0994 54.6719 28.5199C55.2131 27.9361 55.848 27.4929 56.5767 27.1903C57.3054 26.8835 58.098 26.7301 58.9545 26.7301C59.679 26.7301 60.3544 26.8366 60.9808 27.0497C61.6072 27.2585 62.1634 27.5568 62.6491 27.9446C63.1392 28.3324 63.5419 28.7926 63.8572 29.3253C64.1726 29.858 64.3793 30.446 64.4773 31.0895H62.0611ZM71.0595 40.1918C70.1007 40.1918 69.2697 39.9808 68.5666 39.5589C67.8635 39.1371 67.318 38.5469 66.9302 37.7884C66.5467 37.0298 66.3549 36.1435 66.3549 35.1293C66.3549 34.1151 66.5467 33.2266 66.9302 32.4638C67.318 31.701 67.8635 31.1087 68.5666 30.6868C69.2697 30.2649 70.1007 30.054 71.0595 30.054C72.0183 30.054 72.8493 30.2649 73.5524 30.6868C74.2555 31.1087 74.7988 31.701 75.1824 32.4638C75.5701 33.2266 75.764 34.1151 75.764 35.1293C75.764 36.1435 75.5701 37.0298 75.1824 37.7884C74.7988 38.5469 74.2555 39.1371 73.5524 39.5589C72.8493 39.9808 72.0183 40.1918 71.0595 40.1918ZM71.0723 38.3381C71.5922 38.3381 72.0268 38.1953 72.3762 37.9098C72.7257 37.62 72.9856 37.2322 73.1561 36.7464C73.3308 36.2607 73.4181 35.7195 73.4181 35.1229C73.4181 34.522 73.3308 33.9787 73.1561 33.4929C72.9856 33.0028 72.7257 32.6129 72.3762 32.3232C72.0268 32.0334 71.5922 31.8885 71.0723 31.8885C70.5396 31.8885 70.0964 32.0334 69.7427 32.3232C69.3933 32.6129 69.1312 33.0028 68.9565 33.4929C68.786 33.9787 68.7008 34.522 68.7008 35.1229C68.7008 35.7195 68.786 36.2607 68.9565 36.7464C69.1312 37.2322 69.3933 37.62 69.7427 37.9098C70.0964 38.1953 70.5396 38.3381 71.0723 38.3381ZM82.0107 40.1918C81.0518 40.1918 80.2209 39.9808 79.5178 39.5589C78.8146 39.1371 78.2692 38.5469 77.8814 37.7884C77.4979 37.0298 77.3061 36.1435 77.3061 35.1293C77.3061 34.1151 77.4979 33.2266 77.8814 32.4638C78.2692 31.701 78.8146 31.1087 79.5178 30.6868C80.2209 30.2649 81.0518 30.054 82.0107 30.054C82.9695 30.054 83.8004 30.2649 84.5036 30.6868C85.2067 31.1087 85.75 31.701 86.1335 32.4638C86.5213 33.2266 86.7152 34.1151 86.7152 35.1293C86.7152 36.1435 86.5213 37.0298 86.1335 37.7884C85.75 38.5469 85.2067 39.1371 84.5036 39.5589C83.8004 39.9808 82.9695 40.1918 82.0107 40.1918ZM82.0234 38.3381C82.5433 38.3381 82.978 38.1953 83.3274 37.9098C83.6768 37.62 83.9368 37.2322 84.1072 36.7464C84.282 36.2607 84.3693 35.7195 84.3693 35.1229C84.3693 34.522 84.282 33.9787 84.1072 33.4929C83.9368 33.0028 83.6768 32.6129 83.3274 32.3232C82.978 32.0334 82.5433 31.8885 82.0234 31.8885C81.4908 31.8885 81.0476 32.0334 80.6939 32.3232C80.3445 32.6129 80.0824 33.0028 79.9077 33.4929C79.7372 33.9787 79.652 34.522 79.652 35.1229C79.652 35.7195 79.7372 36.2607 79.9077 36.7464C80.0824 37.2322 80.3445 37.62 80.6939 37.9098C81.0476 38.1953 81.4908 38.3381 82.0234 38.3381ZM92.949 43.8864C92.1181 43.8864 91.4043 43.7734 90.8077 43.5476C90.2111 43.326 89.7317 43.0277 89.3695 42.6527C89.0073 42.2777 88.7559 41.8622 88.6152 41.4062L90.699 40.9013C90.7928 41.093 90.9292 41.2827 91.1081 41.4702C91.2871 41.6619 91.5279 41.8196 91.8304 41.9432C92.1373 42.071 92.5229 42.1349 92.9874 42.1349C93.6436 42.1349 94.187 41.9751 94.6174 41.6555C95.0478 41.3402 95.263 40.8203 95.263 40.0959V38.2358H95.1479C95.0286 38.4744 94.8539 38.7195 94.6238 38.9709C94.3979 39.2223 94.0975 39.4332 93.7225 39.6037C93.3517 39.7741 92.8851 39.8594 92.3226 39.8594C91.5684 39.8594 90.8844 39.6825 90.2708 39.3288C89.6614 38.9709 89.1756 38.4382 88.8134 37.7308C88.4554 37.0192 88.2765 36.1286 88.2765 35.0589C88.2765 33.9808 88.4554 33.071 88.8134 32.3295C89.1756 31.5838 89.6635 31.0192 90.2772 30.6357C90.8908 30.2479 91.5748 30.054 92.329 30.054C92.9043 30.054 93.3773 30.152 93.748 30.348C94.123 30.5398 94.4213 30.772 94.6429 31.0447C94.8645 31.3132 95.0328 31.5668 95.1479 31.8054H95.2757V30.1818H97.5577V40.1598C97.5577 40.9993 97.3574 41.6939 96.9569 42.2436C96.5563 42.7933 96.0087 43.2045 95.3141 43.4773C94.6195 43.75 93.8311 43.8864 92.949 43.8864ZM92.9682 38.044C93.4583 38.044 93.8759 37.9247 94.2211 37.6861C94.5662 37.4474 94.8283 37.1044 95.0073 36.657C95.1863 36.2095 95.2757 35.6726 95.2757 35.0462C95.2757 34.4283 95.1863 33.8871 95.0073 33.4226C94.8326 32.9581 94.5726 32.598 94.2275 32.3423C93.8865 32.0824 93.4668 31.9524 92.9682 31.9524C92.4526 31.9524 92.0222 32.0866 91.677 32.3551C91.3319 32.6236 91.0719 32.9922 90.8972 33.4609C90.7225 33.9254 90.6351 34.4538 90.6351 35.0462C90.6351 35.647 90.7225 36.1733 90.8972 36.625C91.0762 37.0724 91.3382 37.4219 91.6834 37.6733C92.0328 37.9205 92.4611 38.044 92.9682 38.044ZM102.243 26.9091V40H99.9292V26.9091H102.243ZM108.969 40.1918C107.985 40.1918 107.135 39.9872 106.419 39.5781C105.707 39.1648 105.159 38.581 104.776 37.8267C104.392 37.0682 104.201 36.1754 104.201 35.1484C104.201 34.1385 104.392 33.2521 104.776 32.4893C105.164 31.7223 105.705 31.1257 106.4 30.6996C107.094 30.2692 107.91 30.054 108.848 30.054C109.453 30.054 110.024 30.152 110.561 30.348C111.102 30.5398 111.579 30.8381 111.993 31.2429C112.41 31.6477 112.738 32.1634 112.977 32.7898C113.216 33.4119 113.335 34.1534 113.335 35.0142V35.7237H105.287V34.1641H111.117C111.113 33.7209 111.017 33.3267 110.829 32.9815C110.642 32.6321 110.38 32.3572 110.043 32.157C109.711 31.9567 109.323 31.8565 108.88 31.8565C108.407 31.8565 107.991 31.9716 107.633 32.2017C107.275 32.4276 106.996 32.7259 106.796 33.0966C106.6 33.4631 106.5 33.8658 106.495 34.3047V35.6662C106.495 36.2372 106.6 36.7273 106.809 37.1364C107.017 37.5412 107.309 37.8523 107.684 38.0696C108.059 38.2827 108.498 38.3892 109.001 38.3892C109.338 38.3892 109.642 38.3423 109.915 38.2486C110.188 38.1506 110.424 38.0078 110.625 37.8203C110.825 37.6328 110.976 37.4006 111.078 37.1236L113.239 37.3665C113.103 37.9375 112.843 38.4361 112.459 38.8622C112.08 39.2841 111.594 39.6122 111.002 39.8466C110.409 40.0767 109.732 40.1918 108.969 40.1918ZM119.86 40V26.9091H124.769C125.774 26.9091 126.618 27.0966 127.3 27.4716C127.986 27.8466 128.504 28.3622 128.853 29.0185C129.207 29.6705 129.384 30.4119 129.384 31.2429C129.384 32.0824 129.207 32.8281 128.853 33.4801C128.499 34.1321 127.977 34.6456 127.287 35.0206C126.597 35.3913 125.747 35.5767 124.737 35.5767H121.483V33.6271H124.417C125.005 33.6271 125.487 33.5249 125.862 33.3203C126.237 33.1158 126.514 32.8345 126.693 32.4766C126.876 32.1186 126.968 31.7074 126.968 31.2429C126.968 30.7784 126.876 30.3693 126.693 30.0156C126.514 29.6619 126.235 29.3871 125.855 29.1911C125.48 28.9908 124.997 28.8906 124.404 28.8906H122.231V40H119.86ZM133.655 26.9091V40H131.341V26.9091H133.655ZM138.86 40.1982C138.238 40.1982 137.677 40.0874 137.179 39.8658C136.684 39.6399 136.292 39.3075 136.003 38.8686C135.717 38.4297 135.574 37.8885 135.574 37.245C135.574 36.6911 135.677 36.233 135.881 35.8707C136.086 35.5085 136.365 35.2188 136.719 35.0014C137.072 34.7841 137.471 34.62 137.914 34.5092C138.361 34.3942 138.824 34.3111 139.301 34.2599C139.876 34.2003 140.343 34.147 140.701 34.1001C141.059 34.049 141.319 33.9723 141.481 33.87C141.647 33.7635 141.73 33.5994 141.73 33.3778V33.3395C141.73 32.858 141.587 32.4851 141.302 32.2209C141.016 31.9567 140.605 31.8246 140.068 31.8246C139.501 31.8246 139.052 31.9482 138.719 32.1953C138.391 32.4425 138.17 32.7344 138.055 33.071L135.894 32.7642C136.064 32.1676 136.346 31.669 136.738 31.2685C137.13 30.8636 137.609 30.5611 138.176 30.3608C138.743 30.1562 139.369 30.054 140.055 30.054C140.528 30.054 140.999 30.1094 141.468 30.2202C141.937 30.331 142.365 30.5142 142.753 30.7699C143.14 31.0213 143.452 31.3643 143.686 31.799C143.925 32.2337 144.044 32.777 144.044 33.429V40H141.819V38.6513H141.743C141.602 38.924 141.404 39.1797 141.148 39.4183C140.897 39.6527 140.579 39.8423 140.196 39.9872C139.817 40.1278 139.371 40.1982 138.86 40.1982ZM139.461 38.4979C139.925 38.4979 140.328 38.4062 140.669 38.223C141.01 38.0355 141.272 37.7884 141.455 37.4815C141.643 37.1747 141.736 36.8402 141.736 36.478V35.321C141.664 35.3807 141.54 35.4361 141.366 35.4872C141.195 35.5384 141.003 35.5831 140.79 35.6214C140.577 35.6598 140.366 35.6939 140.157 35.7237C139.949 35.7536 139.768 35.7791 139.614 35.8004C139.269 35.8473 138.96 35.924 138.687 36.0305C138.415 36.1371 138.199 36.2862 138.042 36.478C137.884 36.6655 137.805 36.9084 137.805 37.2067C137.805 37.6328 137.961 37.9545 138.272 38.1719C138.583 38.3892 138.979 38.4979 139.461 38.4979ZM147.457 43.6818C147.142 43.6818 146.85 43.6563 146.581 43.6051C146.317 43.5582 146.106 43.5028 145.949 43.4389L146.486 41.6364C146.822 41.7344 147.123 41.7813 147.387 41.777C147.651 41.7727 147.883 41.6896 148.084 41.5277C148.288 41.37 148.461 41.1058 148.601 40.7351L148.8 40.2045L145.239 30.1818H147.694L149.956 37.5966H150.059L152.328 30.1818H154.789L150.858 41.1889C150.675 41.7088 150.432 42.1541 150.129 42.5249C149.827 42.8999 149.456 43.1854 149.017 43.3814C148.582 43.5817 148.062 43.6818 147.457 43.6818Z" fill="white"/>
<rect x="0.5" y="0.5" width="169" height="49" rx="7.5" stroke="white" stroke-opacity="0.1"/>
<defs>
<linearGradient id="paint0_linear_1873_265" x1="22.3257" y1="10.8103" x2="8.9282" y2="24.2294" gradientUnits="userSpaceOnUse">
<stop stop-color="#00A0FF"/>
<stop offset="0.00657" stop-color="#00A1FF"/>
<stop offset="0.2601" stop-color="#00BEFF"/>
<stop offset="0.5122" stop-color="#00D2FF"/>
<stop offset="0.7604" stop-color="#00DFFF"/>
<stop offset="1" stop-color="#00E3FF"/>
</linearGradient>
<linearGradient id="paint1_linear_1873_265" x1="42.3316" y1="24.9113" x2="11.9698" y2="24.9113" gradientUnits="userSpaceOnUse">
<stop stop-color="#FFE000"/>
<stop offset="0.4087" stop-color="#FFBD00"/>
<stop offset="0.7754" stop-color="#FFA500"/>
<stop offset="1" stop-color="#FF9C00"/>
</linearGradient>
<linearGradient id="paint2_linear_1873_265" x1="31.0405" y1="29.9373" x2="8.33743" y2="52.5109" gradientUnits="userSpaceOnUse">
<stop stop-color="#FF3A44"/>
<stop offset="1" stop-color="#C31162"/>
</linearGradient>
<linearGradient id="paint3_linear_1873_265" x1="9.05623" y1="7.12146" x2="19.1745" y2="17.1975" gradientUnits="userSpaceOnUse">
<stop stop-color="#32A071"/>
<stop offset="0.0685" stop-color="#2DA771"/>
<stop offset="0.4762" stop-color="#15CF74"/>
<stop offset="0.8009" stop-color="#06E775"/>
<stop offset="1" stop-color="#00F076"/>
</linearGradient>
</defs>
</svg>
