<svg xmlns="http://www.w3.org/2000/svg" viewBox="0 0 32 32"><g data-name="Layer 2"><path d="M10.4443,27H21.5557A5.4506,5.4506,0,0,0,27,21.5557V10.4443A5.4506,5.4506,0,0,0,21.5557,5H10.4443A5.4506,5.4506,0,0,0,5,10.4443V21.5557A5.4506,5.4506,0,0,0,10.4443,27ZM7,10.4443A3.4479,3.4479,0,0,1,10.4443,7H21.5557A3.4479,3.4479,0,0,1,25,10.4443V21.5557A3.4479,3.4479,0,0,1,21.5557,25H10.4443A3.4479,3.4479,0,0,1,7,21.5557Z"/><path d="M16,21a5,5,0,1,0-5-5A5.0059,5.0059,0,0,0,16,21Zm0-8a3,3,0,1,1-3,3A3.0033,3.0033,0,0,1,16,13Z"/><circle cx="21.5" cy="10.5" r="1.5"/></g></svg>