<svg width="109" height="32" viewBox="0 0 109 32" fill="none" xmlns="http://www.w3.org/2000/svg">
<path d="M49.9858 12.5653C49.9176 11.8778 49.625 11.3437 49.108 10.9631C48.5909 10.5824 47.8892 10.392 47.0028 10.392C46.4006 10.392 45.892 10.4773 45.4773 10.6477C45.0625 10.8125 44.7443 11.0426 44.5227 11.3381C44.3068 11.6335 44.1989 11.9688 44.1989 12.3438C44.1875 12.6562 44.2528 12.929 44.3949 13.1619C44.5426 13.3949 44.7443 13.5966 45 13.767C45.2557 13.9318 45.5511 14.0767 45.8864 14.2017C46.2216 14.321 46.5795 14.4233 46.9602 14.5085L48.5284 14.8835C49.2898 15.054 49.9886 15.2812 50.625 15.5653C51.2614 15.8494 51.8125 16.1989 52.2784 16.6136C52.7443 17.0284 53.1051 17.517 53.3608 18.0795C53.6222 18.642 53.7557 19.2869 53.7614 20.0142C53.7557 21.0824 53.483 22.0085 52.9432 22.7926C52.4091 23.571 51.6364 24.1761 50.625 24.608C49.6193 25.0341 48.4063 25.2472 46.9858 25.2472C45.5767 25.2472 44.3494 25.0312 43.304 24.5994C42.2642 24.1676 41.4517 23.5284 40.8665 22.6818C40.2869 21.8295 39.983 20.7756 39.9545 19.5199H43.5256C43.5653 20.1051 43.733 20.5937 44.0284 20.9858C44.3295 21.3722 44.7301 21.6648 45.2301 21.8636C45.7358 22.0568 46.3068 22.1534 46.9432 22.1534C47.5682 22.1534 48.1108 22.0625 48.571 21.8807C49.0369 21.6989 49.3977 21.446 49.6534 21.1222C49.9091 20.7983 50.0369 20.4261 50.0369 20.0057C50.0369 19.6136 49.9205 19.2841 49.6875 19.017C49.4602 18.75 49.125 18.5227 48.6818 18.3352C48.2443 18.1477 47.7074 17.9773 47.071 17.8239L45.1705 17.3466C43.6989 16.9886 42.5369 16.429 41.6847 15.6676C40.8324 14.9062 40.4091 13.8807 40.4148 12.5909C40.4091 11.5341 40.6903 10.6108 41.2585 9.82102C41.8324 9.03125 42.6193 8.41477 43.6193 7.97159C44.6193 7.52841 45.7557 7.30682 47.0284 7.30682C48.3239 7.30682 49.4545 7.52841 50.4205 7.97159C51.392 8.41477 52.1477 9.03125 52.6875 9.82102C53.2273 10.6108 53.5057 11.5256 53.5227 12.5653H49.9858ZM63.1385 11.9091V14.6364H55.255V11.9091H63.1385ZM57.0447 8.77273H60.6754V20.9773C60.6754 21.3125 60.7266 21.5739 60.8288 21.7614C60.9311 21.9432 61.0732 22.071 61.255 22.1449C61.4425 22.2187 61.6584 22.2557 61.9027 22.2557C62.0732 22.2557 62.2436 22.2415 62.4141 22.2131C62.5845 22.179 62.7152 22.1534 62.8061 22.1364L63.3771 24.8381C63.1953 24.8949 62.9396 24.9602 62.6101 25.0341C62.2805 25.1136 61.88 25.1619 61.4084 25.179C60.5334 25.2131 59.7663 25.0966 59.1072 24.8295C58.4538 24.5625 57.9453 24.1477 57.5817 23.5852C57.218 23.0227 57.0391 22.3125 57.0447 21.4545V8.77273ZM69.2365 25.2472C68.4013 25.2472 67.657 25.1023 67.0036 24.8125C66.3501 24.517 65.8331 24.0824 65.4524 23.5085C65.0774 22.929 64.8899 22.2074 64.8899 21.3438C64.8899 20.6165 65.0234 20.0057 65.2905 19.5114C65.5575 19.017 65.9212 18.6193 66.3814 18.3182C66.8416 18.017 67.3643 17.7898 67.9496 17.6364C68.5405 17.483 69.1598 17.375 69.8075 17.3125C70.5689 17.233 71.1825 17.1591 71.6484 17.0909C72.1143 17.017 72.4524 16.9091 72.6626 16.767C72.8729 16.625 72.978 16.4148 72.978 16.1364V16.0852C72.978 15.5455 72.8075 15.1278 72.4666 14.8324C72.1314 14.5369 71.6541 14.3892 71.0348 14.3892C70.3814 14.3892 69.8615 14.5341 69.4751 14.8239C69.0888 15.108 68.8331 15.4659 68.7081 15.8977L65.3501 15.625C65.5206 14.8295 65.8558 14.142 66.3558 13.5625C66.8558 12.9773 67.5007 12.5284 68.2905 12.2159C69.0859 11.8977 70.0064 11.7386 71.0518 11.7386C71.7791 11.7386 72.4751 11.8239 73.1399 11.9943C73.8104 12.1648 74.4041 12.429 74.9212 12.7869C75.4439 13.1449 75.8558 13.6051 76.157 14.1676C76.4581 14.7244 76.6087 15.392 76.6087 16.1705V25H73.1655V23.1847H73.0632C72.853 23.5938 72.5717 23.9545 72.2195 24.267C71.8672 24.5739 71.4439 24.8153 70.9496 24.9915C70.4553 25.1619 69.8842 25.2472 69.2365 25.2472ZM70.2763 22.7415C70.8104 22.7415 71.282 22.6364 71.6911 22.4261C72.1001 22.2102 72.4212 21.9205 72.6541 21.5568C72.8871 21.1932 73.0036 20.7812 73.0036 20.321V18.9318C72.8899 19.0057 72.7337 19.0739 72.5348 19.1364C72.3416 19.1932 72.1229 19.2472 71.8786 19.2983C71.6342 19.3437 71.3899 19.3864 71.1456 19.4261C70.9013 19.4602 70.6797 19.4915 70.4808 19.5199C70.0547 19.5824 69.6825 19.6818 69.3643 19.8182C69.0462 19.9545 68.799 20.1392 68.6229 20.3722C68.4467 20.5994 68.3587 20.8835 68.3587 21.2244C68.3587 21.7188 68.5376 22.0966 68.8956 22.358C69.2592 22.6136 69.7195 22.7415 70.2763 22.7415ZM85.3402 25.2557C83.9993 25.2557 82.8459 24.9716 81.88 24.4034C80.9197 23.8295 80.1811 23.0341 79.6641 22.017C79.1527 21 78.897 19.8295 78.897 18.5057C78.897 17.1648 79.1555 15.9886 79.6726 14.9773C80.1953 13.9602 80.9368 13.1676 81.897 12.5994C82.8572 12.0256 83.9993 11.7386 85.3232 11.7386C86.4652 11.7386 87.4652 11.946 88.3232 12.3608C89.1811 12.7756 89.8601 13.358 90.3601 14.108C90.8601 14.858 91.1357 15.7386 91.1868 16.75H87.7607C87.6641 16.0966 87.4084 15.571 86.9936 15.1733C86.5845 14.7699 86.0476 14.5682 85.3828 14.5682C84.8203 14.5682 84.3288 14.7216 83.9084 15.0284C83.4936 15.3295 83.1697 15.7699 82.9368 16.3494C82.7038 16.929 82.5874 17.6307 82.5874 18.4545C82.5874 19.2898 82.701 20 82.9283 20.5852C83.1612 21.1705 83.4879 21.6165 83.9084 21.9233C84.3288 22.2301 84.8203 22.3835 85.3828 22.3835C85.7976 22.3835 86.1697 22.2983 86.4993 22.1278C86.8345 21.9574 87.1101 21.7102 87.326 21.3864C87.5476 21.0568 87.6925 20.6619 87.7607 20.2017H91.1868C91.13 21.2017 90.8572 22.0824 90.3686 22.8438C89.8857 23.5994 89.218 24.1903 88.3658 24.6165C87.5135 25.0426 86.505 25.2557 85.3402 25.2557ZM100.474 11.9091V14.6364H92.5909V11.9091H100.474ZM94.3807 8.77273H98.0114V20.9773C98.0114 21.3125 98.0625 21.5739 98.1648 21.7614C98.267 21.9432 98.4091 22.071 98.5909 22.1449C98.7784 22.2187 98.9943 22.2557 99.2386 22.2557C99.4091 22.2557 99.5795 22.2415 99.75 22.2131C99.9205 22.179 100.051 22.1534 100.142 22.1364L100.713 24.8381C100.531 24.8949 100.276 24.9602 99.946 25.0341C99.6165 25.1136 99.2159 25.1619 98.7443 25.179C97.8693 25.2131 97.1023 25.0966 96.4432 24.8295C95.7898 24.5625 95.2813 24.1477 94.9176 23.5852C94.554 23.0227 94.375 22.3125 94.3807 21.4545V8.77273ZM104.962 25.2216C104.399 25.2216 103.916 25.0227 103.513 24.625C103.115 24.2216 102.916 23.7386 102.916 23.1761C102.916 22.6193 103.115 22.142 103.513 21.7443C103.916 21.3466 104.399 21.1477 104.962 21.1477C105.507 21.1477 105.984 21.3466 106.393 21.7443C106.803 22.142 107.007 22.6193 107.007 23.1761C107.007 23.5511 106.911 23.8949 106.717 24.2074C106.53 24.5142 106.283 24.7614 105.976 24.9489C105.669 25.1307 105.331 25.2216 104.962 25.2216Z" fill="white"/>
<circle cx="16" cy="16" r="16" fill="#00AA45"/>
<path d="M17.5927 13.5821L24.1927 4.50714L9.34275 13.5821L14.2927 18.5321L7.69275 27.6071L22.5427 18.5321L17.5927 13.5821Z" fill="#008134"/>
<path d="M17.2357 14.1179L22.4 6.97144L10.7714 14.1179L14.65 17.9964L9.48572 25.1429L21.1143 17.9964L17.2357 14.1179Z" fill="white"/>
</svg>
